# xmcd
#
# Track frame offsets:
# 150
# 12420
# 24788
# 36624
# 47151
# 65795
# 80252
# 93266
# 108963
# 118396
# 139742
# 153232
# 174743
# 185625
# 196159
# 214087
# 232492
# 260387
# 275757
# 289523
#
# Disc length: 4041 seconds
#
#
# Revision: 0
# Processed by: cddbd v1.5.2PL0 Copyright (c) Steve Scherf et al.
# Submitted via: FreeRIP 2.945 
#
DISCID=2b0fc714
DTITLE=Multitubes Soul Funk - Volume 4
DYEAR=2008
DGENRE=Funk
TTITLE0=Lyn Collins - Think (About it)
TTITLE1=James Brown - Please, please, please
TTITLE2=Ann Peebles - Trouble, heartaches and sadness
TTITLE3=Bobby Patterson - How do you spell love
TTITLE4=Al Green - Simply beautiful
TTITLE5=Ben E King - Stand by me
TTITLE6=Percy Sledge - I've been loving you too long
TTITLE7=Screamin' Jay Hawkins - I put a spell on you
TTITLE8=Wilson Pickett - Baby don't weep no more
TTITLE9=Billy Paul - Me and Mrs Jones
TTITLE10=The Drifters - On Broadway
TTITLE11=Curtis Mayfield - You mean everything to me
TTITLE12=Fontella Bass - Hold on this time
TTITLE13=Janet and The Jays - Love what you are doing to me
TTITLE14=Ohio Players - Try a little tenderness
TTITLE15=Shalamar - Inky dinky wang dang doo
TTITLE16=Solomon Burke - Let your love flow
TTITLE17=Syl Johnson - I hate I walked away
TTITLE18=Aaron Neville - Tell it like it is
TTITLE19=Sly and The Family Stone - Watermelon man
EXTD=
EXTT0=
EXTT1=
EXTT2=
EXTT3=
EXTT4=
EXTT5=
EXTT6=
EXTT7=
EXTT8=
EXTT9=
EXTT10=
EXTT11=
EXTT12=
EXTT13=
EXTT14=
EXTT15=
EXTT16=
EXTT17=
EXTT18=
EXTT19=
PLAYORDER=
